<svg version="1.2" baseProfile="tiny-ps" xmlns="http://www.w3.org/2000/svg" viewBox="0 0 200 200" width="200" height="200">
	<title>AvatarMake-svg</title>
	<defs>
		<linearGradient id="grd1" gradientUnits="userSpaceOnUse"  x1="99.979" y1="168.452" x2="99.979" y2="126.802">
			<stop offset="0" stop-color="#e1ac8f" stop-opacity="0.8" />
			<stop offset="0.7" stop-color="#c27b55"  />
		</linearGradient>
		<linearGradient id="grd2" gradientUnits="userSpaceOnUse"  x1="99.979" y1="142.952" x2="99.979" y2="140.402">
			<stop offset="0.1" stop-color="#e8b9a0"  />
			<stop offset="1" stop-color="#e1ac8f"  />
		</linearGradient>
		<radialGradient id="grd3" gradientUnits="userSpaceOnUse"  cx="77.237" cy="94.048" r="12.849">
			<stop offset="0" stop-color="#ffffff"  />
			<stop offset="0.315" stop-color="#fcfdfd"  />
			<stop offset="0.504" stop-color="#f4f7f8"  />
			<stop offset="0.66" stop-color="#e5ecef"  />
			<stop offset="0.76" stop-color="#d8e2e7"  />
		</radialGradient>
		<radialGradient id="grd4" gradientUnits="userSpaceOnUse"  cx="81.289" cy="92.374" r="13.603">
			<stop offset="0" stop-color="#e1ac8f"  />
			<stop offset="0.7" stop-color="#e1ac8f" stop-opacity="0.3" />
			<stop offset="1" stop-color="#f0c7b1" stop-opacity="0" />
		</radialGradient>
		<radialGradient id="grd5" gradientUnits="userSpaceOnUse"  cx="74.112" cy="116.49" r="25.939">
			<stop offset="0.95" stop-color="#000000" stop-opacity="0" />
			<stop offset="1" stop-color="#000000" stop-opacity="0.2" />
		</radialGradient>
		<radialGradient id="grd6" gradientUnits="userSpaceOnUse"  cx="122.383" cy="94.047" r="12.848">
			<stop offset="0" stop-color="#ffffff"  />
			<stop offset="0.316" stop-color="#fcfdfd"  />
			<stop offset="0.505" stop-color="#f4f7f8"  />
			<stop offset="0.661" stop-color="#e5ecef"  />
			<stop offset="0.76" stop-color="#d8e2e7"  />
		</radialGradient>
		<radialGradient id="grd7" gradientUnits="userSpaceOnUse"  cx="118.33" cy="92.374" r="13.603">
			<stop offset="0" stop-color="#e1ac8f"  />
			<stop offset="0.7" stop-color="#e1ac8f" stop-opacity="0.3" />
			<stop offset="1" stop-color="#f0c7b1" stop-opacity="0" />
		</radialGradient>
		<radialGradient id="grd8" gradientUnits="userSpaceOnUse"  cx="125.509" cy="116.49" r="25.939">
			<stop offset="0.95" stop-color="#000000" stop-opacity="0" />
			<stop offset="1" stop-color="#000000" stop-opacity="0.2" />
		</radialGradient>
		<radialGradient id="grd9" gradientUnits="userSpaceOnUse"  cx="99.979" cy="119.152" r="34.85">
			<stop offset="0" stop-color="#ffe4d6" stop-opacity="0.5" />
			<stop offset="0.9" stop-color="#f0c7b1" stop-opacity="0" />
		</radialGradient>
		<radialGradient id="grd10" gradientUnits="userSpaceOnUse"  cx="99.979" cy="68.152" r="31.45">
			<stop offset="0" stop-color="#ffe4d6" stop-opacity="0.5" />
			<stop offset="0.9" stop-color="#f0c7b1" stop-opacity="0" />
		</radialGradient>
	</defs>
	<style>
		tspan { white-space:pre }
		.shp0 { fill: #2a232b } 
		.shp1 { fill: #f0c7b1 } 
		.shp2 { fill: #ffe4d6 } 
		.shp3 { fill: #e1ac8f } 
		.shp4 { fill: none;stroke: #c27b55;stroke-width: 1.275 } 
		.shp5 { fill: url(#grd1) } 
		.shp6 { fill: #386e77 } 
		.shp7 { fill: #4d7e86 } 
		.shp8 { fill: #0c4049 } 
		.shp9 { fill: #f0c7b1;stroke: #c27b55;stroke-width: 1.275 } 
		.shp10 { fill: #c27b55 } 
		.shp11 { fill: #e8b9a0 } 
		.shp12 { fill: url(#grd2) } 
		.shp13 { fill: url(#grd3) } 
		.shp14 { fill: #4e60a3 } 
		.shp15 { fill: #6777b2 } 
		.shp16 { fill: #253984 } 
		.shp17 { fill: #152975 } 
		.shp18 { opacity: 0.902;fill: #000000 } 
		.shp19 { opacity: 0.702;fill: #ffffff } 
		.shp20 { opacity: 0.902;fill: #ffffff } 
		.shp21 { fill: url(#grd4) } 
		.shp22 { fill: url(#grd5) } 
		.shp23 { fill: #000000 } 
		.shp24 { fill: url(#grd6) } 
		.shp25 { fill: url(#grd7) } 
		.shp26 { fill: url(#grd8) } 
		.shp27 { fill: url(#grd9) } 
		.shp28 { fill: url(#grd10) } 
		.shp29 { fill: #3a353a } 
		.shp30 { opacity: 0.2;fill: #ffffff } 
		.shp31 { opacity: 0.4;fill: #ffffff } 
		.shp32 { fill: #26120b } 
		.shp33 { fill: #351d15 } 
	</style>
	<g id="svga-group-wrapper">
		<g id="svga-group-humanwrap-move">
			<g id="svga-group-humanwrap">
				<g id="svga-group-hair-back-move">
					<g id="svga-group-hair-back">
						<path id="SvgjsPath3520" class="shp0" d="M100.4 107.68L99.55 107.68L99.55 106.83L100.4 106.83L100.4 107.68Z" />
					</g>
				</g>
				<g id="svga-group-humanbody-single">
					<path id="SvgjsPath3288" class="shp1" d="M181.08 192.06C179.22 188.03 174.12 182.05 168.45 180.4C161.45 178.36 145.64 175.89 139.78 174.51C135.08 173.41 125.62 164.91 122.3 162.06C121.71 161.55 121.22 160.5 121.21 159.72C121.09 150.48 124.77 125.95 124.77 125.95L99.98 125.95L75.19 125.95C75.19 125.95 78.87 150.48 78.75 159.72C78.74 160.5 78.25 161.55 77.66 162.06C74.34 164.91 64.88 173.41 60.18 174.51C54.32 175.89 38.51 178.44 31.51 180.48C25.84 182.13 20.74 188.03 18.88 192.06C15.72 198.87 14.98 211.19 14.98 221.81L99.98 221.81L184.98 221.81C184.98 211.19 184.23 198.87 181.08 192.06Z" />
					<path id="SvgjsPath3289" class="shp2" d="M150.26 178.7C170.95 181.71 179.66 186.1 182.39 221.81L184.98 221.81C184.98 211.19 184.23 198.87 181.08 192.06C179.22 188.03 174.12 182.05 168.45 180.4C161.45 178.36 145.64 175.89 139.78 174.52C135.08 173.41 124.27 164.26 121.38 160.62C124.24 164.62 132.26 173.88 139.28 176.31C142.64 177.47 145.44 178 150.26 178.7ZM60.68 176.31C67.7 173.88 75.72 164.62 78.58 160.62C75.69 164.26 64.88 173.41 60.18 174.52C54.32 175.89 38.51 178.44 31.51 180.48C25.84 182.13 20.74 188.03 18.88 192.06C15.73 198.87 14.98 211.19 14.98 221.81L17.57 221.81C20.28 186.33 29.03 181.71 49.7 178.7C54.52 178 57.32 177.47 60.68 176.31Z" />
					<path id="SvgjsPath3290" fill-rule="evenodd" class="shp3" d="M96.28 190.23C96.28 190.23 93.08 187.78 92.5 185.85C91.43 182.24 87.06 167.95 87.06 167.95C87.06 167.95 89.23 180.9 89.62 184.95C82.91 183.8 52.52 182.59 52.52 182.59C52.52 182.59 81.38 184.8 90.26 188.21C91.97 188.86 96.28 190.23 96.28 190.23ZM99.97 192.8C101.6 192.85 104.08 190.34 105.2 189.32C104.13 190.13 101.67 190.5 100.69 190.54C99.56 190.58 96.28 190.23 96.28 190.23C96.28 190.23 98.74 192.77 99.97 192.8ZM105.46 189.09C105.38 189.15 105.3 189.23 105.2 189.32C105.3 189.24 105.38 189.17 105.46 189.09ZM114.14 183.84C112.83 184.05 110.42 184.51 110.42 184.51L112.36 171.85C111.81 174.46 108.56 185.63 105.46 189.09C107.08 187.71 110.69 187.06 112.53 186.79C121.23 185.53 121.23 185.53 147.44 182.59C147.44 182.59 122.73 182.46 114.14 183.84Z" />
					<path id="SvgjsPath3291" class="shp4" d="M181.08 192.06C179.22 188.03 174.12 182.05 168.45 180.4C161.45 178.36 145.64 175.89 139.78 174.51C135.08 173.41 125.62 164.91 122.3 162.06C121.71 161.55 121.22 160.5 121.21 159.72C121.09 150.48 124.77 125.95 124.77 125.95L99.98 125.95L75.19 125.95C75.19 125.95 78.87 150.48 78.75 159.72C78.74 160.5 78.25 161.55 77.66 162.06C74.34 164.91 64.88 173.41 60.18 174.51C54.32 175.89 38.51 178.44 31.51 180.48C25.84 182.13 20.74 188.03 18.88 192.06C15.72 198.87 14.98 211.19 14.98 221.81L99.98 221.81L184.98 221.81C184.98 211.19 184.23 198.87 181.08 192.06Z" />
				</g>
				<g id="svga-group-chinshadow-single">
					<path id="SvgjsPath3438" class="shp5" d="M79.17 160.85C85.1 164.7 93.03 168.34 99.98 168.34C106.63 168.34 114.72 164.68 120.77 160.8C120.65 160.44 120.57 160.07 120.57 159.72C120.46 151.33 123.41 130.81 124.03 126.59L75.93 126.59C76.55 130.81 79.5 151.33 79.39 159.72C79.39 160.08 79.3 160.46 79.17 160.85Z" />
				</g>
				<g id="svga-group-clothes-single">
					<path id="SvgjsPath3603" class="shp6" d="M100.11 222.43C69.13 222.43 38.12 222.11 7.92 221.5C8.03 204.21 14.47 183.78 32.31 177.81C36.51 176.24 46.07 175.13 53.05 174.33L53.65 174.25L53.71 173.95C53.73 173.85 53.88 173.74 53.94 173.72C55.4 173.55 56.47 173.35 57.41 173.18L58.03 173.06C58.08 173.05 58.13 173.05 58.18 173.05C58.41 173.05 58.64 173.15 58.8 173.32C68.49 184 80.34 189.65 90.8 194.64C93.66 196.01 96.36 197.29 98.93 198.64C99.38 198.88 99.81 199.12 100.22 199.36C100.66 199.62 101.1 199.87 101.52 200.08L101.73 200.19L101.94 200.06C114.65 192.04 128.99 182.52 138.87 172.74C139 172.62 139.17 172.55 139.35 172.55C139.4 172.55 139.45 172.55 139.51 172.57C140.26 172.74 141 172.88 141.76 173.02C142.7 173.19 143.67 173.37 144.68 173.64C144.7 173.65 144.77 173.7 144.8 173.79L144.87 174.07L145.16 174.1C146.91 174.32 148.69 174.5 150.57 174.69C158.81 175.5 168.15 176.42 175.58 181.5C185.82 188.25 190.53 206.49 191.55 221.49C190.78 221.5 189.3 221.53 187.16 221.57C175.32 221.81 143.86 222.43 100.11 222.43C100.11 222.43 100.11 222.43 100.11 222.43Z" />
					<path id="SvgjsPath3604" fill-rule="evenodd" class="shp7" d="M175.58 181.5C167.4 175.91 143.78 173.88 138.87 172.74C132.45 180.38 113.86 192.52 101.74 200.19C113.97 195.02 127.79 187.73 138.77 175.3C150.35 179.56 165.97 177.16 174.93 184.63C184.72 194.54 187.51 207.19 190.09 221.52C190.71 221.51 191.21 221.5 191.55 221.49C190.53 206.49 185.82 188.25 175.58 181.5ZM58.8 173.32C58.78 173.3 36.37 176.29 32.31 177.81C14.47 183.78 8.03 204.21 7.92 221.49C8.16 221.5 8.39 221.5 8.62 221.51C9.56 208.53 13.6 197.5 22.3 188.13C31.08 178.56 47.11 179.23 59.34 176.66C72.34 189.66 89.37 196.32 101.73 200.19C82.89 190.66 69.92 185.57 58.8 173.32Z" />
					<path id="SvgjsPath3605" fill-rule="evenodd" class="shp8" d="M192.01 221.91C187.82 221.91 110.33 224.03 7.5 221.91C7.5 203.53 14.48 183.33 32.17 177.41C36.47 175.8 46.34 174.67 53.3 173.87C53.36 173.55 53.71 173.32 53.88 173.3C55.68 173.09 56.89 172.84 57.96 172.64C58.38 172.57 58.82 172.72 59.11 173.04C71.34 186.51 86.96 191.9 99.13 198.27C100.07 198.76 100.9 199.29 101.71 199.7C113.44 192.3 128.36 182.54 138.57 172.44C138.84 172.18 139.23 172.06 139.6 172.15C141.3 172.55 142.96 172.75 144.79 173.23C144.96 173.27 145.15 173.44 145.21 173.68C154.97 174.9 166.65 174.89 175.82 181.15C187.08 188.57 191.19 208.92 192.01 221.91ZM98.31 204.12C99.38 204.55 103.01 206.78 103.02 206.78C106.1 204.18 125.47 191.1 137.11 180.49C142.85 175.13 141.96 176.31 143.75 174.82C141.61 174.37 140.33 173.98 138.73 173.48C124.3 189.83 105.66 197.2 98.31 204.12ZM54.29 174.94C62.1 184.63 70.08 191.67 97.07 203.47C97.57 202.97 100.42 200.59 101.02 200.18C100.28 199.9 99.51 199.56 98.7 199.2C85.26 193.22 66.94 185.61 58.92 173.94C58.66 174 54.49 174.9 54.29 174.94ZM191.46 221.48C182.9 174.63 170.63 179.28 144.34 174.95C142.68 176.48 142.92 176.21 140.71 178.46C126.84 192.58 109.06 202.9 103.06 207.41C96.67 204.17 91.66 202.28 77.04 194.75C67.18 189.67 64.13 187.7 53.77 175.04C36.97 177.36 26.24 178.79 18.24 190.58C11.22 200.76 9.29 210.62 8.07 221.62C70.24 220.37 128.49 220.23 191.46 221.48Z" />
				</g>
				<g id="svga-group-head">
					<g id="svga-group-ears-left-move">
						<g id="svga-group-ears-left">
							<path id="SvgjsPath3467" class="shp9" d="M53.8 93.94C52.54 91.85 48.42 86.12 45.27 86.93C42.71 87.58 42.75 91.15 42.55 93.26C42.26 96.36 42.15 101.76 42.99 103.95C43.8 106.05 46.36 110.11 47.95 111.66C49.9 113.56 53.02 119.62 53.41 120.24C54.01 121.24 55.22 122.66 57.08 122.55C59.69 122.39 61.95 119.92 62.15 118.73C63.26 112.28 57.08 99.39 53.8 93.94Z" />
							<path id="SvgjsPath3468" fill-rule="evenodd" class="shp10" d="M53.58 110.01C54.32 110.91 55.02 111.77 55.25 112.52C55.32 112.78 55.33 113.31 55.31 113.75C55.3 114.1 55.21 114.25 55.12 114.25C55.04 114.24 54.99 114.08 55 113.72C55.01 113.45 55.01 113.15 54.99 112.92C54.83 113.05 54.61 113.16 54.32 113.16C54.16 113.16 53.97 113.13 53.76 113.04C52.75 112.61 53.03 111.24 52.72 110.71C52.45 110.26 52.22 109.87 51.61 109.6C50.5 109.13 47.62 107.38 47.25 106.03C46.24 102.36 50.2 97.78 50.59 97.15C50.39 96.7 50.2 96.29 50.02 95.93C49.8 95.48 49.51 94.94 49.17 94.38C48.5 95.58 44.3 101.27 45.18 105.1C46 108.72 51.5 113.61 52.77 114.99C53.01 115.25 53.16 115.51 53.1 115.57C53.03 115.63 52.78 115.48 52.55 115.22C51.26 113.83 45.72 108.92 44.87 105.18C44.8 104.89 44.76 104.59 44.73 104.29C44.55 104 43.96 102.08 43.66 99.51C43.27 96.25 43.83 91.78 44.01 90.89C43.74 91.12 43.56 91.37 43.48 91.33C43.4 91.3 43.46 91 43.7 90.75C44.03 90.41 44.61 90.07 45.48 90.35C47.59 91.04 49.27 93.69 50.31 95.79C51.21 97.62 52.59 101 52.83 102.77C52.9 103.25 52.79 103.92 52.68 104.63C52.56 105.41 52.43 106.21 52.55 106.69C52.74 107.43 52.86 109.12 53.58 110.01ZM48.98 94.07C48.42 93.18 47.1 91.66 46.24 91.32C45.79 92.12 42.71 97.48 44.7 103.37C44.79 99.41 48.57 94.77 48.98 94.07ZM54.92 112.55C54.69 111.86 54.01 111.03 53.34 110.21C52.59 109.3 52.45 107.58 52.24 106.77C52.11 106.23 52.24 105.39 52.37 104.58C52.47 103.92 52.58 103.24 52.52 102.82C52.46 102.35 52.31 101.78 52.12 101.14C51.48 101.61 48.96 103.86 51.24 109.03C51.41 109.14 51.58 109.24 51.73 109.31C52.44 109.61 52.72 110.09 52.99 110.55C53.29 111.06 52.96 112.35 53.89 112.75C54.5 113.01 54.82 112.68 54.92 112.55Z" />
						</g>
					</g>
					<g id="svga-group-ears-right-move">
						<g id="svga-group-ears-right">
							<path id="SvgjsPath3469" class="shp9" d="M145.94 93.94C147.2 91.85 151.31 86.12 154.46 86.93C157.02 87.58 156.99 91.15 157.19 93.26C157.48 96.36 157.58 101.76 156.74 103.95C155.93 106.05 153.37 110.11 151.79 111.66C149.83 113.56 146.71 119.62 146.33 120.24C145.72 121.24 144.51 122.66 142.65 122.55C140.04 122.39 137.79 119.92 137.58 118.73C136.48 112.28 142.65 99.39 145.94 93.94Z" />
							<path id="SvgjsPath3470" fill-rule="evenodd" class="shp10" d="M147.19 106.69C147.31 106.21 147.18 105.41 147.06 104.63C146.94 103.92 146.84 103.25 146.9 102.77C147.15 101 148.53 97.62 149.43 95.79C150.47 93.69 152.15 91.04 154.26 90.35C155.13 90.07 155.7 90.41 156.03 90.75C156.28 91 156.33 91.3 156.25 91.34C156.17 91.37 155.99 91.12 155.73 90.89C155.9 91.78 156.46 96.25 156.08 99.52C155.77 102.09 155.18 104 155 104.29C154.98 104.59 154.93 104.89 154.87 105.18C154.02 108.93 148.48 113.83 147.19 115.22C146.95 115.48 146.7 115.63 146.64 115.57C146.58 115.51 146.73 115.25 146.96 115C148.24 113.61 153.74 108.72 154.56 105.11C155.43 101.27 151.24 95.58 150.57 94.38C150.23 94.94 149.94 95.48 149.71 95.94C149.54 96.29 149.34 96.71 149.14 97.16C149.54 97.78 153.5 102.36 152.49 106.03C152.12 107.38 149.24 109.13 148.13 109.6C147.51 109.87 147.29 110.26 147.02 110.71C146.71 111.24 146.99 112.61 145.97 113.04C145.77 113.13 145.58 113.17 145.41 113.17C145.13 113.17 144.91 113.05 144.75 112.92C144.73 113.15 144.73 113.45 144.74 113.72C144.75 114.08 144.7 114.24 144.61 114.25C144.53 114.26 144.44 114.1 144.42 113.75C144.41 113.32 144.41 112.78 144.49 112.52C144.72 111.77 145.41 110.91 146.15 110.01C146.88 109.12 147 107.43 147.19 106.69ZM155.03 103.37C157.03 97.48 153.94 92.12 153.49 91.32C152.63 91.66 151.32 93.18 150.76 94.07C151.17 94.77 154.95 99.41 155.03 103.37ZM145.85 112.74C146.77 112.35 146.45 111.06 146.75 110.55C147.02 110.09 147.3 109.61 148 109.31C148.16 109.24 148.33 109.14 148.5 109.02C150.78 103.86 148.25 101.6 147.62 101.14C147.42 101.77 147.28 102.35 147.21 102.82C147.16 103.24 147.26 103.92 147.37 104.57C147.5 105.39 147.63 106.23 147.49 106.77C147.29 107.58 147.14 109.3 146.4 110.21C145.73 111.02 145.05 111.86 144.82 112.55C144.92 112.68 145.23 113.01 145.85 112.74Z" />
						</g>
					</g>
					<g id="svga-group-faceshape-wrap">
						<g id="svga-group-faceshape-single">
							<path id="SvgjsPath3435" class="shp1" d="M99.98 22.99C71.41 23.03 48.2 46.51 48.24 75.43C48.25 80.02 48.84 84.47 49.94 88.72L49.95 88.72C49.96 88.76 58.69 115.44 60.95 126.16C62.97 135.77 71.97 143.56 76.01 147.8C80.66 152.68 86.47 159.9 99.98 159.84C113.49 159.9 119.3 152.68 123.95 147.8C128 143.56 136.99 135.77 139.01 126.16C141.27 115.44 150.01 88.76 150.02 88.72L150.02 88.72C151.12 84.47 151.71 80.02 151.72 75.43C151.76 46.51 128.56 23.03 99.98 22.99Z" />
							<path id="SvgjsPath3436" class="shp11" d="M128.43 31.66C140.84 41.17 148.94 56.72 148.91 74.29C148.91 78.88 148.35 83.33 147.31 87.58L147.3 87.58C147.29 87.62 139.03 114.29 136.89 125.02C134.98 134.63 126.48 142.41 122.65 146.66C118.25 151.54 112.75 158.76 99.98 158.7C87.21 158.76 81.71 151.54 77.31 146.66C73.49 142.41 64.98 134.63 63.07 125.02C60.93 114.29 52.67 87.62 52.66 87.58L52.66 87.58C51.61 83.33 51.06 78.88 51.05 74.29C51.02 56.72 59.12 41.17 71.53 31.66C57.49 41.04 48.22 57.14 48.24 75.43C48.25 80.02 48.84 84.47 49.95 88.72L49.95 88.72C49.96 88.76 58.69 115.44 60.95 126.16C62.98 135.77 71.97 143.56 76.02 147.8C80.66 152.68 86.48 159.9 99.98 159.84C113.49 159.9 119.3 152.68 123.95 147.8C128 143.56 136.99 135.77 139.01 126.16C141.27 115.44 150.01 88.76 150.02 88.72L150.02 88.72C151.12 84.47 151.71 80.02 151.72 75.43C151.75 57.14 142.47 41.04 128.43 31.66Z" />
							<path id="SvgjsPath3437" class="shp4" d="M99.98 22.99C71.41 23.03 48.2 46.51 48.24 75.43C48.25 80.02 48.84 84.47 49.94 88.72L49.95 88.72C49.96 88.76 58.69 115.44 60.95 126.16C62.97 135.77 71.97 143.56 76.01 147.8C80.66 152.68 86.47 159.9 99.98 159.84C113.49 159.9 119.3 152.68 123.95 147.8C128 143.56 136.99 135.77 139.01 126.16C141.27 115.44 150.01 88.76 150.02 88.72L150.02 88.72C151.12 84.47 151.71 80.02 151.72 75.43C151.76 46.51 128.56 23.03 99.98 22.99Z" />
						</g>
					</g>
					<g id="svga-group-mouth-single-move">
						<g id="svga-group-mouth-single">
							<path id="SvgjsPath3486" class="shp12" d="M96.77 140.6L103.82 140.43C103.01 144.23 97.33 143.68 96.77 140.6Z" />
							<path id="SvgjsPath3490" class="shp10" d="M96.87 140.84C96.56 140.8 96.6 140.35 96.94 140.38C96.98 140.39 100.6 140.85 103.64 140.2C103.96 140.14 104.06 140.59 103.75 140.65C101.37 141.16 98.29 141.04 96.87 140.84ZM100.05 137.81C98.77 137.81 97.53 137.37 96.29 137.15C94.9 136.91 93.51 137.11 92.11 137.24C90.69 137.36 87.58 137.23 86.7 136.67C86.21 136.36 86.3 135.63 86.86 135.44C87.38 135.25 88.19 135.64 88.72 135.74C91.16 136.17 92.44 135.71 94.58 135.63C97.86 135.54 98.21 136.91 102.29 136.09C106.68 135.2 108.66 135.87 111.81 134.92C112.24 134.79 112.75 134.44 113.2 134.68C113.73 134.95 113.7 135.68 113.16 135.92C110.27 137.2 107.06 136.68 103.85 137.22C102.59 137.43 101.34 137.81 100.05 137.81Z" />
						</g>
					</g>
					<g id="svga-group-eyes-left-move">
						<g id="svga-group-eyes-left">
							<g id="svga-group-eyesback-left">
								<path id="SvgjsPath3314" class="shp13" d="M67.47 92.4C67.04 90.45 71.88 89.02 78.27 89.8C84.66 90.59 89.1 94.5 88.52 96.47C88.19 97.56 79.47 99.23 76.4 98.89C73.29 98.55 68.51 97.09 67.47 92.4Z" />
							</g>
							<g id="svga-group-eyesiriswrapper-left">
								<g id="svga-group-eyesiriscontrol-left">
									<g id="svga-group-eyesiris-left">
										<path id="SvgjsPath3491" class="shp14" d="M83.19 93.86C83.19 96.68 80.91 98.96 78.09 98.96C75.28 98.96 72.99 96.68 72.99 93.86C72.99 91.05 75.28 88.76 78.09 88.76C80.91 88.76 83.19 91.05 83.19 93.86Z" />
										<path id="SvgjsPath3492" class="shp15" d="M75.13 96.25C75.87 96.19 75.21 95.99 75.21 95.99C74.84 95.79 74.15 95.49 74.15 95.21C74.15 94.33 75.35 94.1 74.12 93.76C72.84 92.58 75.11 92.61 75.1 92.57C74.27 90.55 75.35 91.66 75.81 91.06C77.5 88.85 76.28 91.29 77.2 91.06C77.53 90.98 76.53 89.76 77.22 89.93C77.68 90.04 77.79 90.42 77.79 90.42C78.12 90.36 78.64 89.84 78.64 89.84C79.28 90.04 79.73 90.94 79.53 90.77C79.84 90.73 80.28 90.58 80.62 90.48C80.62 90.48 80.68 90.28 80.74 90.45C81.52 92.71 83.53 92.55 81.22 93.21C81.22 93.21 81.07 93.21 81.54 93.58C83.84 95.42 79.75 94.85 81.92 95.7C82.01 95.61 80.62 96.52 80.62 96.77C80.62 97.2 79.74 98.32 78.97 97.88C78.54 97.63 78.48 98.39 78.22 98.04C77.73 97.36 76.74 98.01 77.11 97.38C77.65 96.94 76.55 97.55 76.34 97.55C75.64 97.55 77.26 95.19 79.65 96.95C80.35 97.46 78.92 95.73 80.18 95.73C80.31 95.77 80.27 95.29 80.27 95.15C79.61 95.02 81.45 95.15 81.45 94.08C81.57 94.1 81.88 93.78 80.06 94.08C80.06 94.08 80 93.44 80.03 93.32C80.13 92.95 81.06 93.07 80.8 92.69C80.8 92.68 80.12 91.32 80.12 91.32C77.93 90.97 79.18 90.75 77.82 91.03C77.75 91.35 74.89 92.72 74.98 93.35C75.06 93.95 76.78 94.15 75.16 95.21C77.59 99.86 73.36 95.1 75.13 96.25Z" />
										<path id="SvgjsPath3493" class="shp16" d="M78.09 89.4L78.24 93.13L79.8 89.74L78.5 93.25L81.25 90.71L78.71 93.45L82.22 92.16L78.82 93.72L82.56 93.86L78.82 94.01L82.22 95.57L78.71 94.28L81.25 97.02L78.5 94.48L79.8 97.99L78.24 94.59L78.09 98.33L77.95 94.59L76.38 97.99L77.68 94.48L74.94 97.02L77.47 94.28L73.97 95.57L77.36 94.01L73.63 93.86L77.36 93.72L73.97 92.16L77.47 93.45L74.94 90.71L77.68 93.25L76.38 89.74L77.95 93.13L78.09 89.4Z" />
										<path id="SvgjsPath3494" class="shp17" d="M78.77 90.52L78.31 93.34L79.99 91.03L78.49 93.46L80.93 91.98L78.62 93.65L81.44 93.21L78.66 93.86L81.44 94.54L78.62 94.08L80.92 95.77L78.49 94.27L79.98 96.7L78.31 94.39L78.75 97.21L78.09 94.43L77.42 97.2L77.87 94.39L76.19 96.69L77.69 94.26L75.25 95.75L77.57 94.08L74.75 94.52L77.53 93.86L74.75 93.19L77.57 93.64L75.26 91.96L77.69 93.46L76.21 91.02L77.88 93.34L77.44 90.52L78.1 93.3L78.77 90.52Z" />
										<path id="SvgjsPath3495" class="shp18" d="M80 93.86C80 94.92 79.15 95.78 78.09 95.78C77.04 95.78 76.18 94.92 76.18 93.86C76.18 92.81 77.04 91.95 78.09 91.95C79.15 91.95 80 92.81 80 93.86Z" />
										<path id="SvgjsPath3496" class="shp19" d="M76.08 97.53C75.8 97.81 75.25 97.71 74.84 97.31C74.44 96.9 74.34 96.35 74.62 96.06C74.9 95.78 75.46 95.88 75.86 96.29C76.27 96.69 76.37 97.25 76.08 97.53Z" />
										<path id="SvgjsPath3497" class="shp20" d="M82.18 92.86C81.76 93.28 80.73 92.94 79.9 92.11C79.06 91.27 78.72 90.25 79.14 89.83C79.57 89.4 80.59 89.74 81.42 90.58C82.26 91.42 82.6 92.44 82.18 92.86Z" />
									</g>
								</g>
							</g>
							<g id="svga-group-eyesfront-left">
								<path id="SvgjsPath3336" fill-rule="evenodd" class="shp1" d="M77.49 70.19C91.12 70.19 95.44 80.47 95.44 92.74C95.44 105.01 86.63 111.79 77.71 111.7C70.17 112.85 60.97 102.07 60.28 92.8C60.28 80.53 67.71 70.19 77.49 70.19ZM76.4 98.89C79.47 99.23 88.19 97.56 88.52 96.47C89.1 94.5 84.66 90.59 78.27 89.8C71.88 89.02 67.04 90.45 67.47 92.4C68.51 97.09 73.29 98.55 76.4 98.89Z" />
								<path id="SvgjsPath3337" class="shp21" d="M76.4 98.89C79.47 99.23 88.19 97.56 88.52 96.47C89.1 94.5 84.66 90.59 78.27 89.8C72.78 89.13 68.44 90.1 67.6 91.61C68.36 86.17 74.15 81.92 81.19 81.89C88.76 81.86 94.91 86.72 94.94 92.74C94.95 98.77 88.83 103.68 81.25 103.71C73.68 103.74 67.53 98.89 67.51 92.86C67.51 92.77 67.52 92.68 67.52 92.59C68.65 97.12 73.33 98.55 76.4 98.89Z" />
								<path id="SvgjsPath3342" class="shp22" d="M67.47 92.4C67.04 90.45 71.88 89.02 78.27 89.8C84.66 90.59 89.1 94.5 88.52 96.47C88.19 97.56 79.47 99.23 76.4 98.89C73.29 98.55 68.51 97.09 67.47 92.4Z" />
								<path id="SvgjsPath3346" class="shp10" d="M67.81 88.06C71.38 86.37 75.75 86.22 79.57 87.2C81.61 87.68 83.79 88.29 85.57 89.44C87.22 90.41 88.57 91.57 89.82 93.01C88.68 91.56 87.47 90.36 85.89 89.38C83.96 88.17 81.84 87.43 79.63 86.9C75.74 85.94 71.37 86.16 67.81 88.06Z" />
								<path id="SvgjsPath3347" class="shp23" d="M68.33 88.57C69.08 88.27 71.79 87.72 72.97 87.66C74.4 87.59 77.28 87.77 78.7 88.02C81.56 88.54 86.56 90.13 88.62 94.13C89.26 95.36 88.68 96.22 88.52 96.4C88.77 94.34 84.4 90.67 78.27 89.94C71.88 89.18 67.04 90.57 67.47 92.45C68.51 97 73.29 98.42 76.4 98.75C79.89 99.12 86.33 97.44 87.19 97.26C85.49 98.12 80.79 99.04 78.88 99.22C78.25 99.28 76.98 99.3 76.35 99.29C71.29 99.15 67.7 96.59 66.38 93.12C65.52 90.88 66.46 89.32 68.33 88.57Z" />
							</g>
						</g>
					</g>
					<g id="svga-group-eyes-right-move">
						<g id="svga-group-eyes-right">
							<g id="svga-group-eyesback-right">
								<path id="SvgjsPath3321" class="shp24" d="M132.15 92.4C132.58 90.45 127.74 89.02 121.35 89.8C114.96 90.59 110.52 94.5 111.1 96.47C111.43 97.56 120.15 99.23 123.22 98.89C126.33 98.55 131.11 97.09 132.15 92.4Z" />
							</g>
							<g id="svga-group-eyesiriswrapper-right">
								<g id="svga-group-eyesiriscontrol-right">
									<g id="svga-group-eyesiris-right">
										<path id="SvgjsPath3498" class="shp14" d="M126.97 93.86C126.97 96.68 124.69 98.96 121.87 98.96C119.05 98.96 116.77 96.68 116.77 93.86C116.77 91.04 119.05 88.76 121.87 88.76C124.69 88.76 126.97 91.04 126.97 93.86Z" />
										<path id="SvgjsPath3499" class="shp15" d="M118.9 96.25C119.65 96.18 118.99 95.99 118.99 95.99C118.62 95.79 117.92 95.49 117.92 95.2C117.92 94.33 119.13 94.1 117.9 93.75C116.62 92.58 118.89 92.61 118.87 92.57C118.04 90.55 119.13 91.66 119.59 91.06C121.27 88.85 120.05 91.29 120.97 91.06C121.3 90.98 120.3 89.76 121 89.93C121.46 90.04 121.56 90.42 121.56 90.42C121.9 90.36 122.41 89.84 122.41 89.84C123.05 90.03 123.5 90.94 123.3 90.77C123.62 90.73 124.06 90.58 124.4 90.48C124.4 90.48 124.46 90.28 124.52 90.45C125.29 92.71 127.31 92.55 125 93.21C125 93.21 124.85 93.21 125.31 93.58C127.62 95.42 123.53 94.85 125.7 95.7C125.79 95.61 124.4 96.52 124.4 96.77C124.4 97.19 123.51 98.31 122.74 97.87C122.32 97.63 122.25 98.39 122 98.04C121.51 97.35 120.51 98.01 120.88 97.38C121.42 96.94 120.32 97.55 120.11 97.55C119.41 97.55 121.03 95.19 123.42 96.95C124.12 97.45 122.69 95.72 123.96 95.72C124.08 95.76 124.05 95.28 124.05 95.15C123.38 95.02 125.23 95.14 125.23 94.07C125.34 94.1 125.66 93.78 123.84 94.07C123.84 94.07 123.78 93.43 123.81 93.32C123.9 92.95 124.84 93.06 124.58 92.68L123.9 91.32C121.71 90.97 122.96 90.75 121.59 91.03C121.53 91.35 118.66 92.72 118.75 93.35C118.84 93.95 120.55 94.15 118.93 95.2C121.36 99.86 117.14 95.1 118.9 96.25Z" />
										<path id="SvgjsPath3500" class="shp16" d="M121.87 89.4L122.02 93.14L123.57 89.74L122.28 93.25L125.02 90.71L122.48 93.45L125.99 92.16L122.59 93.72L126.33 93.87L122.59 94.01L125.99 95.57L122.48 94.28L125.02 97.02L122.28 94.48L123.57 97.99L122.02 94.59L121.87 98.33L121.72 94.59L120.15 97.99L121.45 94.48L118.71 97.02L121.25 94.28L117.74 95.57L121.14 94.01L117.4 93.86L121.14 93.72L117.74 92.15L121.25 93.45L118.71 90.7L121.45 93.24L120.15 89.74L121.72 93.13L121.87 89.4Z" />
										<path id="SvgjsPath3501" class="shp17" d="M122.54 90.52L122.09 93.34L123.77 91.03L122.26 93.46L124.7 91.97L122.39 93.65L125.21 93.21L122.43 93.86L125.21 94.54L122.39 94.08L124.69 95.76L122.26 94.27L123.75 96.71L122.09 94.39L122.52 97.21L121.87 94.43L121.19 97.21L121.65 94.39L119.96 96.69L121.47 94.26L119.03 95.75L121.34 94.08L118.52 94.52L121.3 93.86L118.52 93.19L121.34 93.64L119.04 91.96L121.47 93.46L119.98 91.02L121.65 93.34L121.21 90.52L121.87 93.3L122.54 90.52Z" />
										<path id="SvgjsPath3502" class="shp18" d="M123.78 93.86C123.78 94.92 122.92 95.78 121.87 95.78C120.81 95.78 119.95 94.92 119.95 93.86C119.95 92.81 120.81 91.95 121.87 91.95C122.92 91.95 123.78 92.81 123.78 93.86Z" />
										<path id="SvgjsPath3503" class="shp19" d="M119.85 97.53C119.58 97.81 119.02 97.71 118.62 97.3C118.21 96.9 118.11 96.35 118.4 96.06C118.68 95.79 119.24 95.89 119.64 96.29C120.04 96.69 120.14 97.25 119.85 97.53Z" />
										<path id="SvgjsPath3504" class="shp20" d="M125.95 92.86C125.53 93.28 124.51 92.95 123.67 92.1C122.83 91.27 122.49 90.25 122.92 89.83C123.34 89.41 124.36 89.74 125.19 90.58C126.04 91.42 126.37 92.44 125.95 92.86Z" />
									</g>
								</g>
							</g>
							<g id="svga-group-eyesfront-right">
								<path id="SvgjsPath3356" fill-rule="evenodd" class="shp1" d="M139.34 92.8C138.65 102.06 129.45 112.85 121.91 111.7C112.99 111.79 104.17 105.01 104.17 92.74C104.17 80.47 108.5 70.19 122.13 70.19C131.91 70.19 139.34 80.53 139.34 92.8ZM132.15 92.4C132.58 90.45 127.74 89.02 121.35 89.8C114.96 90.59 110.52 94.5 111.1 96.47C111.43 97.56 120.15 99.23 123.22 98.89C126.33 98.55 131.11 97.09 132.15 92.4Z" />
								<path id="SvgjsPath3357" class="shp25" d="M123.22 98.89C120.15 99.23 111.43 97.56 111.1 96.47C110.52 94.5 114.96 90.59 121.35 89.8C126.84 89.13 131.18 90.1 132.02 91.61C131.26 86.17 125.47 81.92 118.43 81.89C110.86 81.86 104.7 86.72 104.68 92.74C104.67 98.77 110.79 103.68 118.36 103.71C125.94 103.74 132.09 98.89 132.11 92.86C132.11 92.77 132.1 92.68 132.1 92.59C130.96 97.12 126.29 98.55 123.22 98.89Z" />
								<path id="SvgjsPath3362" class="shp26" d="M132.15 92.4C132.58 90.45 127.74 89.02 121.35 89.8C114.96 90.59 110.52 94.5 111.1 96.47C111.43 97.56 120.15 99.23 123.22 98.89C126.33 98.55 131.11 97.09 132.15 92.4Z" />
								<path id="SvgjsPath3366" class="shp10" d="M131.81 88.06C128.24 86.37 123.87 86.22 120.05 87.2C118.01 87.68 115.83 88.29 114.05 89.44C112.39 90.41 111.05 91.57 109.8 93.01C110.94 91.56 112.15 90.36 113.73 89.38C115.66 88.17 117.78 87.43 119.98 86.9C123.88 85.94 128.25 86.16 131.81 88.06Z" />
								<path id="SvgjsPath3367" class="shp23" d="M131.29 88.57C130.54 88.27 127.83 87.72 126.65 87.66C125.21 87.59 122.34 87.77 120.92 88.02C118.06 88.54 113.06 90.13 111 94.13C110.36 95.36 110.93 96.22 111.1 96.4C110.85 94.34 115.21 90.67 121.35 89.94C127.74 89.18 132.58 90.57 132.15 92.45C131.11 97 126.33 98.42 123.22 98.75C119.73 99.12 113.29 97.44 112.43 97.26C114.13 98.12 118.83 99.04 120.74 99.22C121.37 99.28 122.64 99.3 123.27 99.29C128.33 99.15 131.92 96.59 133.24 93.12C134.1 90.88 133.16 89.32 131.29 88.57Z" />
							</g>
						</g>
					</g>
					<g id="svga-group-facehighlight-single">
						<path id="SvgjsPath3280" class="shp27" d="M134.83 119.13C134.86 138.36 119.28 153.97 100.03 154C80.79 154.03 65.16 138.47 65.13 119.24C65.1 100.01 80.68 84.33 99.92 84.3C119.17 84.27 134.8 99.9 134.83 119.13Z" />
						<path id="SvgjsPath3284" class="shp28" d="M131.85 68.15C131.85 85.76 117.58 100.03 99.98 100.03C82.38 100.03 68.1 85.76 68.1 68.15C68.1 50.55 82.38 36.28 99.98 36.28C117.58 36.28 131.85 50.55 131.85 68.15Z" />
					</g>
					<g id="svga-group-eyebrows-left-move">
						<g id="svga-group-eyebrows-left-rotate">
							<g id="svga-group-eyebrows-left">
								<path id="SvgjsPath3507" class="shp0" d="M60.88 85.31C69.34 76.83 75.13 80.28 86.88 82.54C87.6 82.68 92.25 83.85 91.39 85.49C90.98 86.27 89.66 86.18 88.93 86.16C77.29 85.95 71.63 77.67 60.88 85.31Z" />
							</g>
						</g>
					</g>
					<g id="svga-group-eyebrows-right-move">
						<g id="svga-group-eyebrows-right-rotate">
							<g id="svga-group-eyebrows-right">
								<path id="SvgjsPath3508" class="shp0" d="M139.08 85.31C130.62 76.83 124.83 80.28 113.08 82.54C112.36 82.68 107.71 83.85 108.56 85.49C108.97 86.27 110.29 86.18 111.03 86.16C122.67 85.95 128.33 77.67 139.08 85.31Z" />
							</g>
						</g>
					</g>
					<g id="svga-group-nose-single-move">
						<g id="svga-group-nose-single">
							<path id="SvgjsPath3461" class="shp3" d="M98.82 98.75C98.82 98.75 97.36 108.46 96.68 111.04C96 113.63 93.22 117.88 93.4 120.36C93.67 124.02 98.8 124.25 100.7 124.25L97.54 120.45C97.54 120.45 99.02 113.98 99.17 111.5C99.33 108.89 98.82 98.75 98.82 98.75Z" />
							<path id="SvgjsPath3462" class="shp10" d="M98.28 95.4C98.28 95.4 99.44 104.7 98.18 111.83C97.77 114.12 94.86 118.17 95.31 120.45C95.63 122.07 100.7 124.25 100.7 124.25C100.7 124.25 98.51 121.69 98.47 120.45C98.39 118.26 99.8 114.15 99.94 111.95C100.14 108.63 98.28 95.4 98.28 95.4Z" />
						</g>
					</g>
					<g id="svga-group-beardwrap">
						<g id="svga-group-beard-single-move">
							<g id="svga-group-beard-single">
								<path id="SvgjsPath3551" class="shp0" d="M99.98 37.66L99.98 37.66L99.98 37.66L99.98 37.66Z" />
							</g>
						</g>
					</g>
					<g id="svga-group-mustache-single-move">
						<g id="svga-group-mustache-single">
							<path id="SvgjsPath3586" class="shp0" d="M99.98 37.66L99.98 37.66L99.98 37.66L99.98 37.66Z" />
						</g>
					</g>
					<g id="svga-group-hair-front">
						<path id="SvgjsPath3522" class="shp0" d="M53.21 102.91C51.15 95.42 50.04 88.86 48.5 82.02L48.57 82C47.99 80.56 45.88 69.2 45.86 69.08C43.72 53.97 50.11 53.11 49.98 46.81C52.67 48.15 55.28 47.49 57.64 45.65C55.16 44.37 55.94 44.17 52.65 42.17C54.97 41.77 56.33 42.31 58.3 42.55C56.61 40.87 53.31 37.43 51.16 37.88L51.02 37.58C54.13 35.15 58.28 40.21 62.03 38.84C62.14 24.92 82.48 22.03 87.43 19.97C94.03 17.46 100.91 11.94 105.75 11.45C103.01 14.2 101.34 18.63 101.21 21.95C105.2 18.14 105.49 18.25 111.54 11.53C111.54 16.94 110.04 17.62 108.1 20.79C113.37 17.33 119.96 7.63 130.09 6.14L130.21 6.46C126.55 8.61 123.72 12.24 121.79 17.26C123.71 14.94 126.43 12.43 129.43 11.97L129.54 12.29C127.66 13.41 123.97 17.17 123.13 23.45C126.85 19.29 132.78 15.85 136.84 14.55L137 14.84C133.27 17.88 131.77 23.19 130.93 27.71C133.54 23.82 135.07 22.93 138.36 21.3C137.3 22.88 137.37 22.61 136.53 24.33C138.56 29.53 145.29 29.74 146.44 38.83C147.83 37.62 148.38 37.32 149.97 36.2L150.21 36.43C149.01 38.29 148.03 41.58 147.37 43.79C149.73 41.98 153.38 40.65 155.95 39.73L156.13 40C153.96 42.21 151.33 45.57 150.89 49.21C151.74 48.71 151.79 48.77 152.89 47.97C152.89 50.59 152.98 50.25 153 51.46C154.07 50.5 154.23 50.37 154.93 49.6C154.78 77.11 153.37 71.63 149.56 90.8C148.9 94.17 147.72 100.05 146.96 102.87L141.82 103.76C143.41 84.72 141.74 88.87 142.9 76.89C144.61 59.23 130.31 44.75 111.43 49.49C107.61 50.45 92.35 50.45 88.53 49.49C67.67 44.25 60.15 56.45 57.91 77.78C56.81 88.25 56.55 84.72 58.14 103.76L53.21 102.91Z" />
						<path id="SvgjsPath3523" class="shp29" d="M153 51.46C152.98 50.25 152.89 50.59 152.89 47.97C151.78 48.77 151.74 48.71 150.89 49.21C151.33 45.57 153.96 42.21 156.13 40L155.95 39.73C153.38 40.65 149.73 41.98 147.37 43.79C148.03 41.58 149.01 38.29 150.21 36.43L149.97 36.2C148.38 37.32 147.83 37.62 146.44 38.83C145.29 29.74 138.56 29.53 136.53 24.33C137.37 22.61 137.3 22.88 138.36 21.3C135.07 22.93 133.54 23.82 130.93 27.71C131.77 23.19 133.27 17.88 137 14.84L136.84 14.55C132.77 15.85 126.85 19.3 123.13 23.45C123.97 17.17 127.66 13.41 129.54 12.29L129.43 11.97C126.42 12.43 123.71 14.94 121.79 17.26C123.72 12.24 126.55 8.61 130.2 6.46L130.09 6.14C119.96 7.63 113.37 17.33 108.09 20.79C110.04 17.62 111.54 16.94 111.54 11.53C105.48 18.25 105.2 18.14 101.21 21.95C101.33 18.63 103.01 14.2 105.75 11.45C100.91 11.94 94.03 17.46 87.43 19.97C82.48 22.03 62.14 24.92 62.03 38.84C58.28 40.21 54.13 35.16 51.02 37.58L51.16 37.88C53.31 37.43 56.61 40.87 58.3 42.55C56.33 42.31 54.97 41.77 52.65 42.17C55.94 44.17 55.16 44.37 57.64 45.65C55.28 47.49 52.67 48.16 49.98 46.81C50.11 53.11 43.71 53.97 45.86 69.08C45.88 69.2 47.99 80.56 48.57 82L48.5 82.02C50.04 88.86 51.15 95.42 53.21 102.91L53.23 102.92C52.67 88.94 43.86 69.07 49.03 56.35C49.7 54.68 52.31 50.3 52.31 50.3C52.31 50.3 60.49 49.23 60.88 46.05C60.88 46.05 59.18 45.2 58.33 44.35C60.03 45.2 60.03 42.65 61.73 43.5C61.73 41.8 59.18 42.65 59.18 40.95C60.88 40.95 62.58 40.95 64.28 42.65C63.43 38.4 64.28 34.15 67.68 31.6C76.18 24.8 87.23 25.65 95.73 18.85C94.88 23.1 94.03 27.35 94.03 31.6C99.13 29.05 100.83 23.95 105.08 20.55C105.93 23.95 104.23 28.2 104.23 31.6C106.78 25.65 110.18 19.7 117.83 18C114.43 21.4 114.43 26.5 114.43 30.75C114.43 27.35 117.83 25.65 118.68 23.1C118.68 26.5 118.68 29.9 118.68 33.3C120.38 28.2 123.78 25.65 128.03 23.95C124.63 27.35 125.48 30.75 124.63 35C127.18 32.45 130.58 31.6 133.13 29.05C135.68 34.15 133.98 38.4 133.98 43.5C134.83 39.25 139.08 36.7 141.63 33.3C142.48 37.55 142.48 41.8 141.63 46.05C142.48 43.5 144.18 41.8 145.03 39.25C145.03 43.38 144.46 46.95 143.35 50.42C144.41 49.19 146.15 48.63 146.73 46.9C146.73 50.58 146.73 53.62 146.73 57.12C147.22 56.11 148.68 55.76 149.28 54.55C148.55 57.45 149.06 59.74 149.23 62.46C149.54 60.79 151.15 59.77 151.73 58.24C151.76 57.58 151.8 56.91 151.83 56.25C152.02 57.03 151.94 57.67 151.73 58.24C150.95 73.34 149.52 88.43 146.41 102.97L146.96 102.88C147.72 100.05 148.9 94.17 149.56 90.8C153.37 71.63 154.78 77.11 154.93 49.6C154.23 50.37 154.07 50.5 153 51.46Z" />
						<path id="SvgjsPath3524" class="shp23" d="M157.59 38.99C153.38 39.7 150.45 41.06 148.2 42.6C148.53 41.75 150.06 36.94 151.72 34.91C149.18 36.05 147.71 37.26 146.86 37.9C146.86 37.02 146.52 36.01 146.35 35.48C146.19 35.04 146.06 34.53 145.27 33.25C140.88 27.05 140.6 29.65 137 24.9C137.66 23.36 138.61 21.86 139.8 20.62C136.48 21.1 134.73 22.39 132.63 24.46C132.59 24.49 132.57 24.53 132.54 24.56C133.86 19.35 136.44 14.84 141.52 13.14C135.24 12.92 127.47 17.56 123.57 22.19C125.25 16.76 127.51 14.18 130.88 11.78C128.46 11.42 126.09 12.41 124.21 13.97C126.37 10.23 129.58 7.25 132.16 5.87C131.79 5.86 131.36 5.83 130.89 5.87C130.22 5.7 126.23 6.35 124.8 6.96C117.72 9.73 112.57 16.16 110.36 18.25C111.99 15.62 112.07 13.75 111.77 11.01C111.21 11.49 101.9 20.41 101.78 20.52C102.44 16.86 103.69 14.63 106.05 11.35C101.84 10.56 91.32 17.48 84.79 19.33C77.95 21.18 60.99 25.05 61.76 38.63C58.11 39.32 52.77 33.46 49.97 38.38C52.21 37.05 55.19 40.26 57.27 42.09C56.42 41.96 53.58 41.29 52.2 42.21C53.81 42.83 55.22 44.7 57.21 45.69C57.23 45.7 57.26 45.71 57.28 45.72C55.47 46.68 53.32 47.45 51.34 46.91C51.04 46.82 50.85 46.77 50.85 46.76C50.62 46.66 50.37 46.56 50.11 46.44L50.1 46.44L50.09 46.43C49.98 46.37 49.87 46.31 49.75 46.25C50.34 51.02 43.11 54.88 43.9 64.97C44.23 71.17 48.11 90.05 52.99 102.85L53.4 102.97C51.37 95.64 50.19 88.74 48.66 81.98C48.53 81.98 46.05 69.19 46.03 69.05C43.9 54.06 50.27 52.97 50.15 47.08C52.81 48.41 55.7 47.45 57.96 45.61C55.3 44.29 55.87 43.92 53.13 42.26C54.97 41.94 57.21 42.67 58.75 42.77C56.76 40.77 53.4 37.23 51.12 37.72C54.15 35.35 58.34 40.5 62.2 38.96C62.2 25.03 82.36 22.27 87.5 20.12C93.68 17.77 101.34 12.07 105.3 11.66C103.23 13.75 101.03 18.38 101.03 22.36C105.14 18.41 105.55 18.43 111.37 11.97C111.37 17.08 109.46 17.99 107.6 21.29C113.05 18.15 119.65 7.84 130.12 6.31C125.74 8.89 122.95 13.39 121.27 18.18C123.27 15.58 126.2 12.63 129.46 12.14C127.75 13.16 123.62 17.05 122.89 23.98C126.59 19.63 132.74 16.04 136.89 14.71C132.98 17.89 131.48 23.52 130.61 28.49C132.05 26.31 133.46 24.33 135.69 22.94C135.7 22.93 135.71 22.92 135.72 22.92C136.59 22.32 136.37 22.49 137.86 21.74C137.29 22.59 137.24 22.48 136.34 24.32C138.4 29.74 145.29 29.77 146.31 39.17C147.89 37.77 148.39 37.52 150.07 36.34C148.76 38.37 147.7 42.09 147.05 44.26C149.52 42.15 154.09 40.58 156.01 39.88C153.46 42.48 150.98 45.92 150.69 49.54C151.21 49.19 151.87 48.91 152.72 48.3C152.72 50.61 152.83 50.31 152.83 51.84C153.28 51.43 154.29 50.55 154.76 50.04C154.59 77 153.16 71.77 149.4 90.77C147.99 97.88 147.24 101.18 146.78 102.91L147.14 102.83C150.19 93.69 156.27 73.05 155.99 62.36C155.97 58.36 155.09 50.03 155.05 49.18C155.03 49.2 153.28 50.86 153.26 50.86C153.26 50.42 153.08 48.58 153.08 47.57C152.78 47.8 152.15 48.23 151.3 48.72C152.47 45.19 154.26 42.99 157.59 38.99Z" />
					</g>
					<g id="svga-group-glasses-single-move">
						<g id="svga-group-glasses-single">
							<path id="SvgjsPath3516" fill-rule="evenodd" class="shp30" d="M141.41 93.63C141.35 98.03 139.4 102.66 136.9 106.37C134.47 109.97 128.14 111.26 123.46 111.26C119.63 111.26 116.22 110.47 114.09 109.1C110.07 106.52 105.75 100.09 104.8 93.95C113.44 88.76 131.27 88.76 141.41 93.63ZM95.06 94.5C93.94 100.47 89.77 106.6 85.87 109.1C83.74 110.47 80.33 111.26 76.5 111.26C71.82 111.26 65.49 109.97 63.06 106.37C60.45 102.5 58.43 97.61 58.55 93.04C68.19 88.53 85.87 89.11 95.06 94.5Z" />
							<path id="SvgjsPath3517" fill-rule="evenodd" class="shp31" d="M138.78 85.7C136.49 82.92 129.38 81.67 123.36 81.67C114.83 81.67 104.8 84.16 104.61 91.17C104.59 92.08 104.66 93.01 104.81 93.94C113.44 88.76 131.27 88.76 141.41 93.63C141.45 90.78 140.7 88.03 138.78 85.7ZM76.6 81.67C70.58 81.67 63.47 82.92 61.18 85.7C59.39 87.86 58.62 90.4 58.55 93.04C68.2 88.53 85.87 89.11 95.05 94.49C95.26 93.37 95.37 92.26 95.34 91.17C95.15 84.16 85.12 81.67 76.6 81.67Z" />
							<path id="SvgjsPath3518" fill-rule="evenodd" class="shp32" d="M146.75 90.89C146.74 92.45 145.76 92.33 144.31 93.01C143.75 93.26 142.57 95.27 142.46 96.1C141.93 99.96 140.39 103.54 137.99 107.09C133.89 113.16 119.54 114.12 113.42 110.18C109.18 107.46 104.8 101.06 103.63 94.7C103.4 93.43 103.18 92.44 103.03 91.59L103.02 91.64C102.72 90.59 101.35 90.08 99.99 90.06C98.63 90.08 97.26 90.59 96.95 91.64L96.94 91.59C96.78 92.44 96.57 93.43 96.34 94.7C95.18 101.06 90.79 107.46 86.56 110.18C80.44 114.12 66.08 113.16 61.98 107.09C59.59 103.54 58.05 99.96 57.51 96.1C57.4 95.28 56.23 93.27 55.67 93.01C54.22 92.33 53.25 92.44 53.23 90.89C53.21 89.33 53.48 84.99 53.67 84.18C54.18 82.14 77.48 77.99 89.58 82.15C92.51 83.16 94.52 84.05 95.73 85.31L95.73 85.3C96.15 86.04 97.23 86.31 97.97 86.02C99.25 85.53 100.63 85.5 101.99 86.02C102.74 86.3 103.8 86.04 104.23 85.3L104.23 85.31C105.44 84.05 107.46 83.15 110.38 82.15C122.48 77.99 145.78 82.13 146.29 84.18C146.48 84.98 146.75 89.33 146.75 90.89ZM94.91 91.18C94.6 79.75 66.07 80.42 61.5 85.97C56.76 91.73 59.41 100.2 63.4 106.13C66.91 111.32 80.21 112.22 85.63 108.74C90.17 105.82 95.1 97.89 94.91 91.18ZM138.46 85.97C133.89 80.42 105.36 79.75 105.05 91.18C104.86 97.89 109.79 105.82 114.33 108.74C119.75 112.22 133.04 111.33 136.55 106.13C140.55 100.2 143.2 91.72 138.46 85.97Z" />
							<path id="SvgjsPath3519" fill-rule="evenodd" class="shp33" d="M95.7 85.27C94.48 84.02 92.47 83.14 89.58 82.14C77.48 77.99 54.18 82.13 53.67 84.17C53.63 84.34 53.59 84.68 53.54 85.1C76.45 75.65 94.81 84.81 95.7 85.27ZM95.73 85.3L95.73 85.29C95.73 85.29 95.72 85.28 95.7 85.27C95.71 85.28 95.72 85.29 95.73 85.3ZM145.81 92.38C146.38 92.12 146.72 91.78 146.73 90.87C146.75 89.33 146.48 84.97 146.29 84.17C145.78 82.12 122.48 77.98 110.38 82.13C107.6 83.09 105.63 83.95 104.41 85.13C110.8 80.07 136.85 79.06 143.84 85.99C145.28 87.44 145.74 90.18 145.81 92.38Z" />
						</g>
					</g>
				</g>
			</g>
		</g>
	</g>
</svg>